<svg width="512" height="512" viewBox="0 0 512 512" fill="none" xmlns="http://www.w3.org/2000/svg">
<rect width="512" height="512" rx="95" fill="url(#paint0_linear)"/>
<path d="M213.75 298.25C210.964 298.25 208.241 299.076 205.925 300.624C203.609 302.171 201.804 304.371 200.738 306.944C199.672 309.517 199.394 312.349 199.937 315.081C200.48 317.813 201.822 320.322 203.791 322.292C205.761 324.262 208.27 325.603 211.002 326.146C213.734 326.69 216.566 326.411 219.139 325.345C221.713 324.279 223.912 322.474 225.46 320.158C227.007 317.842 227.833 315.119 227.833 312.334C227.833 308.598 226.349 305.016 223.708 302.375C221.067 299.734 217.485 298.25 213.75 298.25ZM115.166 284.167C111.431 284.167 107.849 285.651 105.208 288.292C102.567 290.933 101.083 294.515 101.083 298.25V326.417C101.083 330.152 102.567 333.734 105.208 336.375C107.849 339.016 111.431 340.5 115.166 340.5C118.901 340.5 122.484 339.016 125.125 336.375C127.766 333.734 129.25 330.152 129.25 326.417V298.25C129.25 294.515 127.766 290.933 125.125 288.292C122.484 285.651 118.901 284.167 115.166 284.167ZM396.833 284.167C393.098 284.167 389.516 285.651 386.875 288.292C384.233 290.933 382.75 294.515 382.75 298.25V326.417C382.75 330.152 384.233 333.734 386.875 336.375C389.516 339.016 393.098 340.5 396.833 340.5C400.568 340.5 404.15 339.016 406.791 336.375C409.433 333.734 410.916 330.152 410.916 326.417V298.25C410.916 294.515 409.433 290.933 406.791 288.292C404.15 285.651 400.568 284.167 396.833 284.167ZM326.416 185.583H270.083V167.557C274.34 165.099 277.88 161.57 280.35 157.321C282.821 153.071 284.137 148.249 284.166 143.333C284.166 135.863 281.199 128.699 275.917 123.417C270.634 118.134 263.47 115.167 256 115.167C248.529 115.167 241.365 118.134 236.083 123.417C230.801 128.699 227.833 135.863 227.833 143.333C227.863 148.249 229.178 153.071 231.649 157.321C234.12 161.57 237.659 165.099 241.916 167.557V185.583H185.583C174.378 185.583 163.631 190.035 155.708 197.958C147.784 205.882 143.333 216.628 143.333 227.833V354.584C143.333 365.789 147.784 376.535 155.708 384.459C163.631 392.382 174.378 396.834 185.583 396.834H326.416C337.622 396.834 348.368 392.382 356.292 384.459C364.215 376.535 368.666 365.789 368.666 354.584V227.833C368.666 216.628 364.215 205.882 356.292 197.958C348.368 190.035 337.622 185.583 326.416 185.583ZM280.223 213.75L273.181 241.917H238.818L231.776 213.75H280.223ZM340.5 354.584C340.5 358.319 339.016 361.901 336.375 364.542C333.734 367.183 330.151 368.667 326.416 368.667H185.583C181.848 368.667 178.266 367.183 175.625 364.542C172.983 361.901 171.5 358.319 171.5 354.584V227.833C171.5 224.098 172.983 220.516 175.625 217.875C178.266 215.234 181.848 213.75 185.583 213.75H202.765L213.75 259.38C214.521 262.505 216.339 265.271 218.901 267.219C221.464 269.166 224.616 270.177 227.833 270.083H284.166C287.383 270.177 290.536 269.166 293.098 267.219C295.661 265.271 297.479 262.505 298.25 259.38L309.235 213.75H326.416C330.151 213.75 333.734 215.234 336.375 217.875C339.016 220.516 340.5 224.098 340.5 227.833V354.584ZM298.25 298.25C295.464 298.25 292.741 299.076 290.425 300.624C288.109 302.171 286.304 304.371 285.238 306.944C284.172 309.517 283.894 312.349 284.437 315.081C284.98 317.813 286.322 320.322 288.291 322.292C290.261 324.262 292.77 325.603 295.502 326.146C298.234 326.69 301.066 326.411 303.639 325.345C306.213 324.279 308.412 322.474 309.96 320.158C311.507 317.842 312.333 315.119 312.333 312.334C312.333 308.598 310.849 305.016 308.208 302.375C305.567 299.734 301.985 298.25 298.25 298.25Z" fill="#FFE9E9"/>
<defs>
<linearGradient id="paint0_linear" x1="472" y1="32.5" x2="24" y2="480.5" gradientUnits="userSpaceOnUse">
<stop stop-color="#E1457A"/>
<stop offset="1" stop-color="#FFCF53"/>
</linearGradient>
</defs>
</svg>
